<?xml version="1.0" standalone="no"?>
<!DOCTYPE svg PUBLIC "-//W3C//DTD SVG 20010904//EN"
 "http://www.w3.org/TR/2001/REC-SVG-20010904/DTD/svg10.dtd">
<svg version="1.0" xmlns="http://www.w3.org/2000/svg"
 width="1182.000000pt" height="857.000000pt" viewBox="0 0 1182.000000 857.000000"
 preserveAspectRatio="xMidYMid meet">

<g transform="translate(0.000000,857.000000) scale(0.100000,-0.100000)"
fill="#000000" stroke="none">
<path d="M4355 7315 c-11 -2 -231 -9 -490 -15 -551 -13 -876 -25 -1041 -40
-65 -6 -175 -15 -244 -21 -69 -6 -147 -14 -175 -19 -27 -5 -93 -14 -145 -20
-262 -33 -520 -82 -655 -124 -77 -25 -192 -60 -255 -80 -63 -19 -149 -46 -190
-61 -41 -15 -97 -33 -125 -42 -124 -38 -282 -120 -388 -201 -99 -76 -131 -116
-124 -155 3 -21 4 -21 12 -2 57 134 349 278 860 425 420 120 769 182 1305 229
941 84 2195 104 3110 51 262 -15 977 -80 1157 -105 21 -3 205 -25 408 -50 765
-94 1055 -132 1475 -195 198 -30 570 -92 596 -100 17 -6 50 -10 75 -9 37 0 40
2 21 9 -13 6 -51 15 -85 21 -34 6 -84 15 -112 21 -27 5 -68 13 -90 18 -22 4
-80 15 -130 25 -85 16 -115 21 -275 46 -148 24 -239 40 -370 64 -47 9 -112 21
-145 27 -33 5 -82 14 -110 19 -80 13 -277 38 -555 69 -47 5 -128 14 -180 20
-52 6 -133 15 -180 20 -136 15 -180 20 -265 30 -84 10 -280 31 -475 50 -63 6
-149 15 -190 20 -41 5 -167 14 -280 20 -113 6 -279 15 -370 21 -331 20 -1320
45 -1375 34z"/>
<path d="M3195 7154 c-154 -8 -551 -47 -565 -56 -17 -10 269 -5 755 13 337 13
1586 17 2090 8 326 -7 322 -3 -25 21 -144 10 -2089 22 -2255 14z"/>
<path d="M3715 7100 c-1011 -26 -1346 -42 -1585 -75 -438 -61 -699 -126 -1010
-251 -247 -100 -309 -134 -247 -134 12 0 35 -7 50 -15 16 -8 40 -12 56 -9 21
4 34 0 48 -15 13 -14 36 -22 67 -25 31 -3 53 -12 64 -25 13 -16 33 -22 92 -26
41 -3 82 -6 90 -7 29 -5 150 14 156 23 4 6 11 6 19 -1 9 -8 17 -7 27 4 16 16
34 19 238 44 48 5 193 7 342 2 27 0 51 -7 58 -15 10 -12 9 -15 -4 -15 -25 0
-19 -29 8 -40 13 -5 26 -16 28 -25 3 -17 67 -45 104 -45 19 0 22 8 28 60 5 46
14 68 35 92 24 27 34 31 99 36 48 3 77 1 86 -7 12 -10 15 -8 18 10 7 47 26 54
458 174 402 112 577 147 890 182 148 16 258 18 1045 17 858 -1 979 -4 1565
-40 423 -25 1081 -87 1445 -134 44 -6 116 -15 160 -21 296 -37 591 -89 1830
-319 121 -22 283 -52 361 -65 77 -13 146 -25 153 -27 21 -5 24 20 4 31 -38 20
-446 90 -2278 391 -899 147 -1610 219 -2595 260 -323 14 -1525 20 -1905 10z"/>
<path d="M4210 6994 c-511 -33 -641 -57 -1185 -209 -364 -102 -415 -120 -415
-143 0 -38 13 -39 100 -12 259 82 784 214 975 245 489 79 1191 83 2785 15 747
-31 1306 -78 1915 -160 44 -6 103 -13 130 -15 98 -8 -80 24 -330 60 -295 42
-789 99 -1270 145 -60 6 -130 12 -155 15 -121 13 -454 35 -615 41 -99 3 -200
8 -225 10 -64 5 -1644 12 -1710 8z"/>
<path d="M5040 6853 c-516 -14 -1005 -50 -1021 -75 -5 -7 -9 -66 -9 -131 0
-133 3 -128 -93 -142 l-47 -7 0 123 c0 68 -4 130 -9 138 -7 11 -34 10 -162 -7
-85 -12 -212 -28 -284 -37 -118 -15 -212 -32 -620 -111 -71 -14 -140 -23 -152
-21 -37 7 -47 -16 -39 -88 4 -40 3 -65 -3 -65 -18 0 -25 25 -26 93 0 86 -15
101 -90 91 -27 -3 -60 -10 -72 -15 -26 -10 -43 -62 -43 -131 l0 -48 -330 0
-330 0 0 24 c0 14 -4 36 -10 50 -8 22 -15 26 -52 26 -24 0 -48 -4 -55 -8 -8
-5 -13 -47 -15 -127 l-3 -120 -69 -9 c-65 -8 -71 -7 -132 23 -121 60 -189 71
-453 71 -130 0 -241 -4 -248 -8 -8 -5 -9 -13 -3 -22 8 -13 51 -15 262 -16 277
-1 356 -11 445 -58 26 -14 57 -26 69 -26 11 0 41 -6 66 -14 33 -9 51 -10 64
-3 17 9 17 9 6 -6 -21 -25 -77 -39 -125 -32 -23 4 -82 25 -131 47 -114 52
-163 57 -422 45 -116 -5 -227 -7 -246 -3 -46 8 -118 61 -118 85 0 10 -7 24
-16 32 -13 11 -14 9 -8 -17 4 -16 10 -30 13 -31 3 -2 5 -918 3 -2036 -2 -2028
-2 -2034 18 -2052 16 -14 20 -31 20 -81 0 -83 29 -139 86 -166 23 -10 50 -28
60 -39 9 -10 23 -19 31 -19 7 0 13 -4 13 -10 0 -5 7 -10 16 -10 8 0 43 -13 77
-29 82 -38 126 -55 283 -107 444 -146 895 -236 1324 -263 91 -6 239 -16 330
-21 91 -6 219 -16 285 -21 277 -25 2074 -15 2750 16 970 44 1519 102 2515 266
1407 232 2106 370 2188 432 21 16 14 54 -14 76 -39 31 -92 27 -373 -24 -135
-25 -331 -62 -436 -81 -104 -19 -224 -41 -265 -49 -41 -7 -129 -23 -194 -35
-66 -11 -178 -32 -250 -45 -606 -111 -1150 -183 -1711 -225 -71 -6 -186 -14
-255 -20 -642 -51 -2300 -98 -2805 -80 -352 13 -564 43 -900 126 -183 45 -399
109 -335 99 43 -7 72 -9 85 -5 6 1 24 2 40 1 24 -1 27 -3 15 -12 -11 -7 -5 -8
21 -4 29 6 38 3 43 -11 6 -15 9 -16 16 -5 7 12 23 12 107 -2 341 -57 366 -59
878 -87 538 -29 982 -42 1210 -35 599 18 1964 102 2465 151 235 23 1226 176
1710 265 201 36 963 212 986 227 8 5 4 46 -12 138 -53 304 -74 612 -74 1096
l0 337 38 7 c606 109 961 219 1011 313 46 84 -307 213 -851 311 -59 11 -128
25 -153 31 l-45 11 0 177 c0 259 27 839 46 966 25 178 53 237 173 360 42 43
63 75 76 113 9 29 15 55 12 58 -2 3 -32 -11 -66 -31 -84 -49 -132 -69 -140
-56 -21 33 -1114 236 -1996 370 -253 38 -432 61 -880 111 -347 39 -953 85
-1330 100 -137 5 -362 14 -500 20 -272 11 -684 17 -835 13z m-3092 -578 c20
-14 48 -25 62 -25 14 0 30 -4 37 -8 47 -30 105 -623 107 -1087 1 -343 -6 -575
-19 -575 -11 0 -59 72 -92 140 -25 50 -29 34 -11 -36 12 -42 11 -47 -7 -60
-38 -28 -55 -14 -89 76 -18 47 -49 117 -69 155 l-37 70 6 -45 c4 -25 8 -90 10
-145 3 -143 7 -158 47 -220 21 -30 37 -63 37 -74 0 -23 19 -71 73 -183 36 -75
45 -87 62 -82 19 6 19 6 3 -13 -10 -11 -18 -24 -18 -30 0 -17 -48 -56 -63 -50
-7 3 -21 27 -31 54 -10 26 -26 69 -37 95 -10 26 -19 63 -19 82 0 19 -6 39 -14
43 -7 4 -31 46 -52 93 -21 47 -45 96 -53 109 -15 23 -15 23 -30 -25 -15 -47
-16 -39 -24 246 -10 374 -3 811 18 1005 21 201 54 433 72 498 7 28 85 23 131
-8z m4014 -732 c21 -20 38 -43 38 -50 0 -8 13 -13 36 -13 117 0 195 -58 266
-201 58 -114 71 -149 58 -149 -6 0 -10 6 -10 13 0 6 -22 57 -49 112 -63 130
-131 195 -202 195 -54 0 -99 -11 -99 -24 0 -7 -14 -25 -31 -42 l-31 -29 -21
26 c-20 24 -31 27 -112 33 -49 4 -234 9 -410 11 -176 2 -336 8 -355 13 -28 6
-36 13 -38 34 -3 24 1 27 45 38 28 7 175 14 353 17 236 4 309 9 325 19 12 9
47 14 97 14 42 0 80 5 83 10 10 16 17 12 57 -27z m-1002 -89 c0 -14 -4 -23
-10 -19 -5 3 -10 15 -10 26 0 10 5 19 10 19 6 0 10 -12 10 -26z m2912 -791 c2
-192 2 -520 0 -731 l-3 -383 -22 3 -22 3 -6 375 c-4 206 -7 382 -7 390 0 8 2
167 4 353 l5 337 24 0 24 0 3 -347z m-225 -138 c17 -12 22 -29 27 -92 11 -119
11 -140 2 -258 -9 -123 -20 -145 -71 -145 -63 0 -69 14 -75 157 -3 70 -3 170
0 221 4 83 8 96 29 113 28 23 59 24 88 4z m-5465 -87 c6 -219 2 -381 -9 -385
-9 -3 -13 -26 -13 -63 0 -33 -4 -61 -9 -64 -16 -10 -32 77 -29 154 3 65 5 75
21 72 16 -3 17 11 17 168 0 107 4 170 10 170 6 0 11 -24 12 -52z m488 -180 c0
-121 -4 -199 -10 -203 -7 -4 -10 69 -10 212 0 144 4 213 10 203 5 -8 10 -102
10 -212z m-260 55 l-7 -78 -1 105 c0 67 3 95 8 78 4 -14 4 -61 0 -105z m4768
15 c-4 -39 -25 -48 -34 -14 -7 29 1 46 22 46 11 0 14 -9 12 -32z m-2282 12
c27 0 34 -4 34 -20 0 -17 -7 -20 -49 -20 -28 0 -52 4 -55 9 -10 16 6 42 21 37
8 -3 30 -6 49 -6z m-256 -15 c0 -8 -4 -15 -9 -15 -13 0 -22 16 -14 24 11 11
23 6 23 -9z m-2745 -317 c35 -48 65 -84 69 -81 10 10 44 -39 78 -114 18 -40
36 -72 39 -73 8 0 3 111 -7 160 l-7 35 30 -27 c34 -33 43 -35 44 -10 1 11 4 9
9 -8 14 -45 11 -673 -5 -890 -23 -315 -45 -541 -59 -608 -10 -48 -10 -62 0
-66 8 -3 10 -16 5 -38 -6 -31 -10 -33 -56 -38 -29 -3 -63 -15 -82 -28 -40 -29
-129 -32 -137 -4 -9 29 -54 368 -73 542 -15 134 -18 250 -18 617 0 248 3 454
6 457 3 3 32 -8 65 -24 69 -34 99 -39 91 -12 -4 9 -27 77 -52 151 -25 74 -45
138 -45 143 0 5 10 8 21 6 14 -2 45 -35 84 -90z m922 -2034 c-3 -3 -12 -4 -19
-1 -8 3 -5 6 6 6 11 1 17 -2 13 -5z m230 -40 c-3 -3 -12 -4 -19 -1 -8 3 -5 6
6 6 11 1 17 -2 13 -5z"/>
<path d="M1890 6272 c0 -12 65 -62 79 -62 6 0 11 -4 11 -10 0 -5 4 -10 10 -10
18 0 -1 25 -38 50 -59 40 -62 41 -62 32z"/>
<path d="M1925 5165 c4 -16 22 -62 41 -102 19 -40 34 -75 34 -79 0 -3 10 -18
22 -32 15 -20 19 -22 13 -7 -4 11 -10 29 -13 40 -10 37 -104 210 -97 180z"/>
<path d="M7836 4993 c-8 -8 -8 -571 1 -614 15 -76 22 17 22 308 1 274 -3 326
-23 306z"/>
<path d="M7836 4180 c-10 -147 -4 -600 9 -600 13 0 19 539 7 636 l-8 69 -8
-105z"/>
<path d="M7562 4508 c-9 -9 -12 -74 -12 -230 l0 -218 28 -11 c20 -8 33 -7 52
3 l25 14 0 209 c0 116 -4 218 -8 228 -9 20 -66 24 -85 5z m68 -178 c0 -16 -4
-30 -10 -30 -11 0 -14 43 -3 53 11 12 13 8 13 -23z"/>
<path d="M1796 3708 c4 -13 8 -36 8 -53 1 -17 12 -41 26 -56 32 -32 112 -126
122 -142 16 -25 8 14 -11 51 -10 20 -21 50 -25 65 -4 16 -21 42 -38 57 -33 30
-30 55 5 44 22 -6 22 -6 2 8 -11 7 -37 21 -58 31 l-38 17 7 -22z"/>
<path d="M1925 2379 c63 -63 102 -92 109 -80 7 10 -130 131 -148 131 -6 0 12
-23 39 -51z"/>
<path d="M1904 2271 c3 -5 16 -11 28 -14 22 -6 22 -5 4 8 -22 17 -40 20 -32 6z"/>
<path d="M8377 6827 c3 -4 19 -7 37 -6 17 2 36 0 43 -4 12 -8 483 -87 1228
-207 245 -39 255 -40 255 -30 0 5 -17 12 -37 15 -21 3 -56 10 -78 15 -22 5
-56 12 -75 15 -19 3 -71 13 -115 21 -44 8 -132 24 -195 35 -63 11 -140 24
-170 29 -30 6 -154 26 -275 44 -473 74 -630 93 -618 73z"/>
<path d="M9575 6770 c3 -5 23 -10 43 -10 28 0 33 3 22 10 -20 13 -73 13 -65 0z"/>
<path d="M9700 6750 c0 -5 15 -10 33 -9 27 0 29 2 12 9 -28 12 -45 12 -45 0z"/>
<path d="M3928 6743 l-28 -4 0 -109 0 -109 38 13 37 13 3 101 c2 79 0 102 -10
101 -7 -1 -25 -4 -40 -6z"/>
<path d="M9820 6729 c0 -5 9 -9 20 -9 11 0 20 2 20 4 0 2 -9 6 -20 9 -11 3
-20 1 -20 -4z"/>
<path d="M8578 6703 c6 -2 18 -2 25 0 6 3 1 5 -13 5 -14 0 -19 -2 -12 -5z"/>
<path d="M8633 6693 c9 -2 23 -2 30 0 6 3 -1 5 -18 5 -16 0 -22 -2 -12 -5z"/>
<path d="M10278 6643 c6 -2 18 -2 25 0 6 3 1 5 -13 5 -14 0 -19 -2 -12 -5z"/>
<path d="M10393 6623 c9 -2 23 -2 30 0 6 3 -1 5 -18 5 -16 0 -22 -2 -12 -5z"/>
<path d="M10488 6603 c6 -2 18 -2 25 0 6 3 1 5 -13 5 -14 0 -19 -2 -12 -5z"/>
<path d="M10578 6583 c6 -2 18 -2 25 0 6 3 1 5 -13 5 -14 0 -19 -2 -12 -5z"/>
<path d="M9960 6570 c20 -13 33 -13 25 0 -3 6 -14 10 -23 10 -15 0 -15 -2 -2
-10z"/>
<path d="M9478 1873 c6 -2 18 -2 25 0 6 3 1 5 -13 5 -14 0 -19 -2 -12 -5z"/>
<path d="M9368 1853 c12 -2 30 -2 40 0 9 3 -1 5 -23 4 -22 0 -30 -2 -17 -4z"/>
<path d="M9243 1833 c9 -2 23 -2 30 0 6 3 -1 5 -18 5 -16 0 -22 -2 -12 -5z"/>
<path d="M928 1813 c7 -3 16 -2 19 1 4 3 -2 6 -13 5 -11 0 -14 -3 -6 -6z"/>
<path d="M8713 1743 c9 -2 25 -2 35 0 9 3 1 5 -18 5 -19 0 -27 -2 -17 -5z"/>
<path d="M8588 1723 c6 -2 18 -2 25 0 6 3 1 5 -13 5 -14 0 -19 -2 -12 -5z"/>
<path d="M2800 1420 c-10 -7 10 -9 65 -9 69 1 75 2 40 10 -54 11 -87 11 -105
-1z"/>
<path d="M6043 1413 c15 -2 37 -2 50 0 12 2 0 4 -28 4 -27 0 -38 -2 -22 -4z"/>
</g>
</svg>
